<!DOCTYPE svg PUBLIC "-//W3C//DTD SVG 20010904//EN" "http://www.w3.org/TR/2001/REC-SVG-20010904/DTD/svg10.dtd">
<svg version="1.0" xmlns="http://www.w3.org/2000/svg" width="614px" height="613px" viewBox="0 0 6140 6130" preserveAspectRatio="xMidYMid meet">
<g id="layer101" fill="#010000" stroke="none">
 <path d="M0 3065 l0 -3065 3070 0 3070 0 0 3065 0 3065 -3070 0 -3070 0 0 -3065z"/>
 </g>
<g id="layer102" fill="#bc2323" stroke="none">
 <path d="M0 3065 l0 -3065 3070 0 3070 0 0 3065 0 3065 -3070 0 -3070 0 0 -3065z m2808 3040 c68 -20 151 -96 183 -167 l24 -53 0 -1260 0 -1260 -24 -53 c-32 -71 -115 -147 -183 -167 -45 -13 -210 -15 -1288 -15 -1078 0 -1243 2 -1288 15 -68 20 -151 96 -183 167 l-24 53 0 1260 0 1260 24 53 c31 68 116 147 179 166 73 23 2505 23 2580 1z m3100 0 c68 -20 151 -96 183 -167 l24 -53 0 -1260 0 -1260 -24 -53 c-32 -71 -115 -147 -183 -167 -45 -13 -210 -15 -1288 -15 -1078 0 -1243 2 -1288 15 -68 20 -151 96 -183 167 l-24 53 0 1260 0 1260 24 53 c31 68 116 147 179 166 73 23 2505 23 2580 1z m-3100 -3100 c68 -20 151 -96 183 -167 l24 -53 0 -1260 0 -1260 -24 -53 c-32 -71 -115 -147 -183 -167 -45 -13 -210 -15 -1288 -15 -1078 0 -1243 2 -1288 15 -68 20 -151 96 -183 167 l-24 53 0 1260 0 1260 24 53 c31 68 116 147 179 166 73 23 2505 23 2580 1z m3100 0 c68 -20 151 -96 183 -167 l24 -53 0 -1260 0 -1260 -24 -53 c-32 -71 -115 -147 -183 -167 -45 -13 -210 -15 -1288 -15 -1078 0 -1243 2 -1288 15 -68 20 -151 96 -183 167 l-24 53 0 1260 0 1260 24 53 c31 68 116 147 179 166 73 23 2505 23 2580 1z"/>
 <path d="M328 6025 c-93 -35 -168 -114 -198 -209 -18 -56 -8 -171 19 -224 100 -196 353 -240 506 -87 123 124 121 335 -5 449 -66 59 -115 79 -205 83 -52 2 -93 -2 -117 -12z m239 -31 c94 -45 153 -136 161 -245 7 -97 -17 -159 -87 -230 -71 -70 -133 -94 -230 -87 -161 12 -276 134 -275 293 1 225 228 368 431 269z"/>
 <path d="M1058 6025 c-93 -35 -168 -114 -198 -209 -18 -56 -8 -171 19 -224 100 -196 353 -240 506 -87 123 124 121 335 -5 449 -66 59 -115 79 -205 83 -52 2 -93 -2 -117 -12z m239 -31 c94 -45 153 -136 161 -245 7 -97 -17 -159 -87 -230 -71 -70 -133 -94 -230 -87 -161 12 -276 134 -275 293 1 225 228 368 431 269z"/>
 <path d="M1788 6025 c-93 -35 -168 -114 -198 -209 -18 -56 -8 -171 19 -224 100 -196 353 -240 506 -87 123 124 121 335 -5 449 -66 59 -115 79 -205 83 -52 2 -93 -2 -117 -12z m239 -31 c94 -45 153 -136 161 -245 7 -97 -17 -159 -87 -230 -71 -70 -133 -94 -230 -87 -161 12 -276 134 -275 293 1 225 228 368 431 269z"/>
 <path d="M2518 6025 c-93 -35 -168 -114 -198 -209 -18 -56 -8 -171 19 -224 100 -196 353 -240 506 -87 123 124 121 335 -5 449 -66 59 -115 79 -205 83 -52 2 -93 -2 -117 -12z m239 -31 c94 -45 153 -136 161 -245 7 -97 -17 -159 -87 -230 -71 -70 -133 -94 -230 -87 -161 12 -276 134 -275 293 1 225 228 368 431 269z"/>
 <path d="M328 5295 c-93 -35 -168 -114 -198 -209 -18 -56 -8 -171 19 -224 100 -196 353 -240 506 -87 123 124 121 335 -5 449 -66 59 -115 79 -205 83 -52 2 -93 -2 -117 -12z m239 -31 c94 -45 153 -136 161 -245 7 -97 -17 -159 -87 -230 -71 -70 -133 -94 -230 -87 -161 12 -276 134 -275 293 1 225 228 368 431 269z"/>
 <path d="M1058 5295 c-93 -35 -168 -114 -198 -209 -18 -56 -8 -171 19 -224 100 -196 353 -240 506 -87 123 124 121 335 -5 449 -66 59 -115 79 -205 83 -52 2 -93 -2 -117 -12z"/>
 <path d="M1788 5295 c-93 -35 -168 -114 -198 -209 -18 -56 -8 -171 19 -224 100 -196 353 -240 506 -87 123 124 121 335 -5 449 -66 59 -115 79 -205 83 -52 2 -93 -2 -117 -12z"/>
 <path d="M2518 5295 c-93 -35 -168 -114 -198 -209 -18 -56 -8 -171 19 -224 100 -196 353 -240 506 -87 123 124 121 335 -5 449 -66 59 -115 79 -205 83 -52 2 -93 -2 -117 -12z"/>
 <path d="M328 4565 c-93 -35 -168 -114 -198 -209 -18 -56 -8 -171 19 -224 100 -196 353 -240 506 -87 123 124 121 335 -5 449 -66 59 -115 79 -205 83 -52 2 -93 -2 -117 -12z"/>
 <path d="M1058 4565 c-93 -35 -168 -114 -198 -209 -18 -56 -8 -171 19 -224 100 -196 353 -240 506 -87 123 124 121 335 -5 449 -66 59 -115 79 -205 83 -52 2 -93 -2 -117 -12z m239 -31 c94 -45 153 -136 161 -245 7 -97 -17 -159 -87 -230 -71 -70 -133 -94 -230 -87 -161 12 -276 134 -275 293 1 225 228 368 431 269z"/>
 <path d="M1788 4565 c-93 -35 -168 -114 -198 -209 -18 -56 -8 -171 19 -224 100 -196 353 -240 506 -87 123 124 121 335 -5 449 -66 59 -115 79 -205 83 -52 2 -93 -2 -117 -12z m239 -31 c94 -45 153 -136 161 -245 7 -97 -17 -159 -87 -230 -71 -70 -133 -94 -230 -87 -161 12 -276 134 -275 293 1 225 228 368 431 269z"/>
 <path d="M2518 4565 c-93 -35 -168 -114 -198 -209 -18 -56 -8 -171 19 -224 100 -196 353 -240 506 -87 123 124 121 335 -5 449 -66 59 -115 79 -205 83 -52 2 -93 -2 -117 -12z m239 -31 c94 -45 153 -136 161 -245 7 -97 -17 -159 -87 -230 -71 -70 -133 -94 -230 -87 -161 12 -276 134 -275 293 1 225 228 368 431 269z"/>
 <path d="M328 3835 c-93 -35 -168 -114 -198 -209 -18 -56 -8 -171 19 -224 100 -196 353 -240 506 -87 123 124 121 335 -5 449 -66 59 -115 79 -205 83 -52 2 -93 -2 -117 -12z m239 -31 c94 -45 153 -136 161 -245 7 -97 -17 -159 -87 -230 -71 -70 -133 -94 -230 -87 -161 12 -276 134 -275 293 1 225 228 368 431 269z"/>
 <path d="M1058 3835 c-93 -35 -168 -114 -198 -209 -18 -56 -8 -171 19 -224 100 -196 353 -240 506 -87 123 124 121 335 -5 449 -66 59 -115 79 -205 83 -52 2 -93 -2 -117 -12z"/>
 <path d="M1788 3835 c-93 -35 -168 -114 -198 -209 -18 -56 -8 -171 19 -224 100 -196 353 -240 506 -87 123 124 121 335 -5 449 -66 59 -115 79 -205 83 -52 2 -93 -2 -117 -12z m239 -31 c94 -45 153 -136 161 -245 7 -97 -17 -159 -87 -230 -71 -70 -133 -94 -230 -87 -161 12 -276 134 -275 293 1 225 228 368 431 269z"/>
 <path d="M2518 3835 c-93 -35 -168 -114 -198 -209 -18 -56 -8 -171 19 -224 100 -196 353 -240 506 -87 123 124 121 335 -5 449 -66 59 -115 79 -205 83 -52 2 -93 -2 -117 -12z"/>
 <path d="M3428 6025 c-93 -35 -168 -114 -198 -209 -18 -56 -8 -171 19 -224 100 -196 353 -240 506 -87 123 124 121 335 -5 449 -66 59 -115 79 -205 83 -52 2 -93 -2 -117 -12z m239 -31 c94 -45 153 -136 161 -245 7 -97 -17 -159 -87 -230 -71 -70 -133 -94 -230 -87 -161 12 -276 134 -275 293 1 225 228 368 431 269z"/>
 <path d="M4158 6025 c-93 -35 -168 -114 -198 -209 -18 -56 -8 -171 19 -224 100 -196 353 -240 506 -87 123 124 121 335 -5 449 -66 59 -115 79 -205 83 -52 2 -93 -2 -117 -12z m239 -31 c94 -45 153 -136 161 -245 7 -97 -17 -159 -87 -230 -71 -70 -133 -94 -230 -87 -161 12 -276 134 -275 293 1 225 228 368 431 269z"/>
 <path d="M4888 6025 c-93 -35 -168 -114 -198 -209 -18 -56 -8 -171 19 -224 100 -196 353 -240 506 -87 123 124 121 335 -5 449 -66 59 -115 79 -205 83 -52 2 -93 -2 -117 -12z m239 -31 c94 -45 153 -136 161 -245 7 -97 -17 -159 -87 -230 -71 -70 -133 -94 -230 -87 -161 12 -276 134 -275 293 1 225 228 368 431 269z"/>
 <path d="M5618 6025 c-93 -35 -168 -114 -198 -209 -18 -56 -8 -171 19 -224 100 -196 353 -240 506 -87 123 124 121 335 -5 449 -66 59 -115 79 -205 83 -52 2 -93 -2 -117 -12z m239 -31 c94 -45 153 -136 161 -245 7 -97 -17 -159 -87 -230 -71 -70 -133 -94 -230 -87 -161 12 -276 134 -275 293 1 225 228 368 431 269z"/>
 <path d="M3428 5295 c-93 -35 -168 -114 -198 -209 -18 -56 -8 -171 19 -224 100 -196 353 -240 506 -87 123 124 121 335 -5 449 -66 59 -115 79 -205 83 -52 2 -93 -2 -117 -12z m239 -31 c94 -45 153 -136 161 -245 7 -97 -17 -159 -87 -230 -71 -70 -133 -94 -230 -87 -161 12 -276 134 -275 293 1 225 228 368 431 269z"/>
 <path d="M4158 5295 c-93 -35 -168 -114 -198 -209 -18 -56 -8 -171 19 -224 100 -196 353 -240 506 -87 123 124 121 335 -5 449 -66 59 -115 79 -205 83 -52 2 -93 -2 -117 -12z"/>
 <path d="M4888 5295 c-93 -35 -168 -114 -198 -209 -18 -56 -8 -171 19 -224 100 -196 353 -240 506 -87 123 124 121 335 -5 449 -66 59 -115 79 -205 83 -52 2 -93 -2 -117 -12z m239 -31 c94 -45 153 -136 161 -245 7 -97 -17 -159 -87 -230 -71 -70 -133 -94 -230 -87 -161 12 -276 134 -275 293 1 225 228 368 431 269z"/>
 <path d="M5618 5295 c-93 -35 -168 -114 -198 -209 -18 -56 -8 -171 19 -224 100 -196 353 -240 506 -87 123 124 121 335 -5 449 -66 59 -115 79 -205 83 -52 2 -93 -2 -117 -12z"/>
 <path d="M3428 4565 c-93 -35 -168 -114 -198 -209 -18 -56 -8 -171 19 -224 100 -196 353 -240 506 -87 123 124 121 335 -5 449 -66 59 -115 79 -205 83 -52 2 -93 -2 -117 -12z m239 -31 c94 -45 153 -136 161 -245 7 -97 -17 -159 -87 -230 -71 -70 -133 -94 -230 -87 -161 12 -276 134 -275 293 1 225 228 368 431 269z"/>
 <path d="M4158 4565 c-93 -35 -168 -114 -198 -209 -18 -56 -8 -171 19 -224 100 -196 353 -240 506 -87 123 124 121 335 -5 449 -66 59 -115 79 -205 83 -52 2 -93 -2 -117 -12z"/>
 <path d="M4888 4565 c-93 -35 -168 -114 -198 -209 -18 -56 -8 -171 19 -224 100 -196 353 -240 506 -87 123 124 121 335 -5 449 -66 59 -115 79 -205 83 -52 2 -93 -2 -117 -12z m239 -31 c94 -45 153 -136 161 -245 7 -97 -17 -159 -87 -230 -71 -70 -133 -94 -230 -87 -161 12 -276 134 -275 293 1 225 228 368 431 269z"/>
 <path d="M5618 4565 c-93 -35 -168 -114 -198 -209 -18 -56 -8 -171 19 -224 100 -196 353 -240 506 -87 123 124 121 335 -5 449 -66 59 -115 79 -205 83 -52 2 -93 -2 -117 -12z m239 -31 c94 -45 153 -136 161 -245 7 -97 -17 -159 -87 -230 -71 -70 -133 -94 -230 -87 -161 12 -276 134 -275 293 1 225 228 368 431 269z"/>
 <path d="M3428 3835 c-93 -35 -168 -114 -198 -209 -18 -56 -8 -171 19 -224 100 -196 353 -240 506 -87 123 124 121 335 -5 449 -66 59 -115 79 -205 83 -52 2 -93 -2 -117 -12z"/>
 <path d="M4158 3835 c-93 -35 -168 -114 -198 -209 -18 -56 -8 -171 19 -224 100 -196 353 -240 506 -87 123 124 121 335 -5 449 -66 59 -115 79 -205 83 -52 2 -93 -2 -117 -12z m239 -31 c94 -45 153 -136 161 -245 7 -97 -17 -159 -87 -230 -71 -70 -133 -94 -230 -87 -161 12 -276 134 -275 293 1 225 228 368 431 269z"/>
 <path d="M4888 3835 c-93 -35 -168 -114 -198 -209 -18 -56 -8 -171 19 -224 100 -196 353 -240 506 -87 123 124 121 335 -5 449 -66 59 -115 79 -205 83 -52 2 -93 -2 -117 -12z"/>
 <path d="M5618 3835 c-93 -35 -168 -114 -198 -209 -18 -56 -8 -171 19 -224 100 -196 353 -240 506 -87 123 124 121 335 -5 449 -66 59 -115 79 -205 83 -52 2 -93 -2 -117 -12z m239 -31 c94 -45 153 -136 161 -245 7 -97 -17 -159 -87 -230 -71 -70 -133 -94 -230 -87 -161 12 -276 134 -275 293 1 225 228 368 431 269z"/>
 <path d="M350 2917 c-88 -25 -156 -82 -202 -170 -34 -63 -33 -202 1 -271 31 -63 84 -116 147 -147 41 -20 64 -24 139 -24 101 0 143 16 215 81 126 114 128 325 5 449 -76 75 -206 110 -305 82z m186 -24 c33 -11 67 -34 105 -72 70 -71 94 -133 87 -230 -12 -161 -134 -276 -293 -275 -240 1 -384 264 -252 461 34 51 108 107 161 122 51 15 139 12 192 -6z"/>
 <path d="M1080 2917 c-88 -25 -156 -82 -202 -170 -34 -63 -33 -202 1 -271 31 -63 84 -116 147 -147 41 -20 64 -24 139 -24 101 0 143 16 215 81 126 114 128 325 5 449 -76 75 -206 110 -305 82z"/>
 <path d="M1810 2917 c-88 -25 -156 -82 -202 -170 -34 -63 -33 -202 1 -271 31 -63 84 -116 147 -147 41 -20 64 -24 139 -24 101 0 143 16 215 81 126 114 128 325 5 449 -76 75 -206 110 -305 82z m186 -24 c33 -11 67 -34 105 -72 70 -71 94 -133 87 -230 -12 -161 -134 -276 -293 -275 -240 1 -384 264 -252 461 34 51 108 107 161 122 51 15 139 12 192 -6z"/>
 <path d="M2540 2917 c-88 -25 -156 -82 -202 -170 -34 -63 -33 -202 1 -271 31 -63 84 -116 147 -147 41 -20 64 -24 139 -24 101 0 143 16 215 81 126 114 128 325 5 449 -76 75 -206 110 -305 82z"/>
 <path d="M350 2187 c-88 -25 -156 -82 -202 -170 -34 -63 -33 -202 1 -271 31 -63 84 -116 147 -147 41 -20 64 -24 139 -24 101 0 143 16 215 81 126 114 128 325 5 449 -76 75 -206 110 -305 82z m186 -24 c33 -11 67 -34 105 -72 70 -71 94 -133 87 -230 -12 -161 -134 -276 -293 -275 -240 1 -384 264 -252 461 34 51 108 107 161 122 51 15 139 12 192 -6z"/>
 <path d="M1080 2187 c-88 -25 -156 -82 -202 -170 -34 -63 -33 -202 1 -271 31 -63 84 -116 147 -147 41 -20 64 -24 139 -24 101 0 143 16 215 81 126 114 128 325 5 449 -76 75 -206 110 -305 82z"/>
 <path d="M1810 2187 c-88 -25 -156 -82 -202 -170 -34 -63 -33 -202 1 -271 31 -63 84 -116 147 -147 41 -20 64 -24 139 -24 101 0 143 16 215 81 126 114 128 325 5 449 -76 75 -206 110 -305 82z"/>
 <path d="M2540 2187 c-88 -25 -156 -82 -202 -170 -34 -63 -33 -202 1 -271 31 -63 84 -116 147 -147 41 -20 64 -24 139 -24 101 0 143 16 215 81 126 114 128 325 5 449 -76 75 -206 110 -305 82z m186 -24 c33 -11 67 -34 105 -72 70 -71 94 -133 87 -230 -12 -161 -134 -276 -293 -275 -240 1 -384 264 -252 461 34 51 108 107 161 122 51 15 139 12 192 -6z"/>
 <path d="M350 1457 c-88 -25 -156 -82 -202 -170 -34 -63 -33 -202 1 -271 31 -63 84 -116 147 -147 41 -20 64 -24 139 -24 101 0 143 16 215 81 126 114 128 325 5 449 -76 75 -206 110 -305 82z m186 -24 c33 -11 67 -34 105 -72 70 -71 94 -133 87 -230 -12 -161 -134 -276 -293 -275 -240 1 -384 264 -252 461 34 51 108 107 161 122 51 15 139 12 192 -6z"/>
 <path d="M1080 1457 c-88 -25 -156 -82 -202 -170 -34 -63 -33 -202 1 -271 31 -63 84 -116 147 -147 41 -20 64 -24 139 -24 101 0 143 16 215 81 126 114 128 325 5 449 -76 75 -206 110 -305 82z"/>
 <path d="M1810 1457 c-88 -25 -156 -82 -202 -170 -34 -63 -33 -202 1 -271 31 -63 84 -116 147 -147 41 -20 64 -24 139 -24 101 0 143 16 215 81 126 114 128 325 5 449 -76 75 -206 110 -305 82z"/>
 <path d="M2540 1457 c-88 -25 -156 -82 -202 -170 -34 -63 -33 -202 1 -271 31 -63 84 -116 147 -147 41 -20 64 -24 139 -24 101 0 143 16 215 81 126 114 128 325 5 449 -76 75 -206 110 -305 82z m186 -24 c33 -11 67 -34 105 -72 70 -71 94 -133 87 -230 -12 -161 -134 -276 -293 -275 -240 1 -384 264 -252 461 34 51 108 107 161 122 51 15 139 12 192 -6z"/>
 <path d="M350 727 c-88 -25 -156 -82 -202 -170 -34 -63 -33 -202 1 -271 31 -63 84 -116 147 -147 41 -20 64 -24 139 -24 101 0 143 16 215 81 126 114 128 325 5 449 -76 75 -206 110 -305 82z"/>
 <path d="M1080 727 c-88 -25 -156 -82 -202 -170 -19 -34 -23 -58 -23 -132 0 -104 22 -162 85 -225 63 -63 121 -85 225 -85 101 0 143 16 215 81 126 114 128 325 5 449 -76 75 -206 110 -305 82z m186 -24 c33 -11 67 -34 105 -72 70 -71 94 -133 87 -230 -12 -161 -134 -276 -293 -275 -240 1 -384 264 -252 461 34 51 108 107 161 122 51 15 139 12 192 -6z"/>
 <path d="M1810 727 c-88 -25 -156 -82 -202 -170 -34 -63 -33 -202 1 -271 31 -63 84 -116 147 -147 41 -20 64 -24 139 -24 101 0 143 16 215 81 126 114 128 325 5 449 -76 75 -206 110 -305 82z m186 -24 c33 -11 67 -34 105 -72 70 -71 94 -133 87 -230 -12 -161 -134 -276 -293 -275 -240 1 -384 264 -252 461 34 51 108 107 161 122 51 15 139 12 192 -6z"/>
 <path d="M2540 727 c-88 -25 -156 -82 -202 -170 -34 -63 -33 -202 1 -271 31 -63 84 -116 147 -147 41 -20 64 -24 139 -24 101 0 143 16 215 81 126 114 128 325 5 449 -76 75 -206 110 -305 82z"/>
 <path d="M3428 2925 c-93 -35 -168 -114 -198 -209 -18 -56 -8 -171 19 -224 100 -196 353 -240 506 -87 123 124 121 335 -5 449 -66 59 -115 79 -205 83 -52 2 -93 -2 -117 -12z"/>
 <path d="M4158 2925 c-93 -35 -168 -114 -198 -209 -18 -56 -8 -171 19 -224 100 -196 353 -240 506 -87 123 124 121 335 -5 449 -66 59 -115 79 -205 83 -52 2 -93 -2 -117 -12z"/>
 <path d="M4888 2925 c-93 -35 -168 -114 -198 -209 -18 -56 -8 -171 19 -224 100 -196 353 -240 506 -87 123 124 121 335 -5 449 -66 59 -115 79 -205 83 -52 2 -93 -2 -117 -12z m239 -31 c94 -45 153 -136 161 -245 7 -97 -17 -159 -87 -230 -71 -70 -133 -94 -230 -87 -161 12 -276 134 -275 293 1 225 228 368 431 269z"/>
 <path d="M5618 2925 c-93 -35 -168 -114 -198 -209 -18 -56 -8 -171 19 -224 100 -196 353 -240 506 -87 123 124 121 335 -5 449 -66 59 -115 79 -205 83 -52 2 -93 -2 -117 -12z m239 -31 c94 -45 153 -136 161 -245 7 -97 -17 -159 -87 -230 -71 -70 -133 -94 -230 -87 -161 12 -276 134 -275 293 1 225 228 368 431 269z"/>
 <path d="M3428 2195 c-93 -35 -168 -114 -198 -209 -18 -56 -8 -171 19 -224 100 -196 353 -240 506 -87 123 124 121 335 -5 449 -66 59 -115 79 -205 83 -52 2 -93 -2 -117 -12z"/>
 <path d="M4158 2195 c-93 -35 -168 -114 -198 -209 -18 -56 -8 -171 19 -224 100 -196 353 -240 506 -87 123 124 121 335 -5 449 -66 59 -115 79 -205 83 -52 2 -93 -2 -117 -12z"/>
 <path d="M4888 2195 c-93 -35 -168 -114 -198 -209 -18 -56 -8 -171 19 -224 100 -196 353 -240 506 -87 123 124 121 335 -5 449 -66 59 -115 79 -205 83 -52 2 -93 -2 -117 -12z m239 -31 c94 -45 153 -136 161 -245 7 -97 -17 -159 -87 -230 -71 -70 -133 -94 -230 -87 -161 12 -276 134 -275 293 1 225 228 368 431 269z"/>
 <path d="M5618 2195 c-93 -35 -168 -114 -198 -209 -18 -56 -8 -171 19 -224 100 -196 353 -240 506 -87 123 124 121 335 -5 449 -66 59 -115 79 -205 83 -52 2 -93 -2 -117 -12z m239 -31 c94 -45 153 -136 161 -245 7 -97 -17 -159 -87 -230 -71 -70 -133 -94 -230 -87 -161 12 -276 134 -275 293 1 225 228 368 431 269z"/>
 <path d="M3428 1465 c-93 -35 -168 -114 -198 -209 -18 -56 -8 -171 19 -224 100 -196 353 -240 506 -87 123 124 121 335 -5 449 -66 59 -115 79 -205 83 -52 2 -93 -2 -117 -12z"/>
 <path d="M4158 1465 c-93 -35 -168 -114 -198 -209 -18 -56 -8 -171 19 -224 100 -196 353 -240 506 -87 123 124 121 335 -5 449 -66 59 -115 79 -205 83 -52 2 -93 -2 -117 -12z m239 -31 c94 -45 153 -136 161 -245 7 -97 -17 -159 -87 -230 -71 -70 -133 -94 -230 -87 -161 12 -276 134 -275 293 1 225 228 368 431 269z"/>
 <path d="M4888 1465 c-93 -35 -168 -114 -198 -209 -18 -56 -8 -171 19 -224 100 -196 353 -240 506 -87 123 124 121 335 -5 449 -66 59 -115 79 -205 83 -52 2 -93 -2 -117 -12z"/>
 <path d="M5618 1465 c-93 -35 -168 -114 -198 -209 -18 -56 -8 -171 19 -224 100 -196 353 -240 506 -87 123 124 121 335 -5 449 -66 59 -115 79 -205 83 -52 2 -93 -2 -117 -12z"/>
 <path d="M3428 735 c-93 -35 -168 -114 -198 -209 -18 -56 -8 -171 19 -224 100 -196 353 -240 506 -87 123 124 121 335 -5 449 -66 59 -115 79 -205 83 -52 2 -93 -2 -117 -12z m239 -31 c94 -45 153 -136 161 -245 7 -97 -17 -159 -87 -230 -71 -70 -133 -94 -230 -87 -161 12 -276 134 -275 293 1 225 228 368 431 269z"/>
 <path d="M4158 735 c-93 -35 -168 -114 -198 -209 -18 -56 -8 -171 19 -224 100 -196 353 -240 506 -87 123 124 121 335 -5 449 -66 59 -115 79 -205 83 -52 2 -93 -2 -117 -12z m239 -31 c94 -45 153 -136 161 -245 7 -97 -17 -159 -87 -230 -71 -70 -133 -94 -230 -87 -161 12 -276 134 -275 293 1 225 228 368 431 269z"/>
 <path d="M4888 735 c-93 -35 -168 -114 -198 -209 -18 -56 -8 -171 19 -224 100 -196 353 -240 506 -87 123 124 121 335 -5 449 -66 59 -115 79 -205 83 -52 2 -93 -2 -117 -12z"/>
 <path d="M5618 735 c-93 -35 -168 -114 -198 -209 -18 -56 -8 -171 19 -224 100 -196 353 -240 506 -87 123 124 121 335 -5 449 -66 59 -115 79 -205 83 -52 2 -93 -2 -117 -12z m239 -31 c94 -45 153 -136 161 -245 7 -97 -17 -159 -87 -230 -71 -70 -133 -94 -230 -87 -161 12 -276 134 -275 293 1 225 228 368 431 269z"/>
 </g>
<g id="layer103" fill="#8e8888" stroke="none">
 <path d="M0 3065 l0 -3065 3070 0 3070 0 0 3065 0 3065 -3070 0 -3070 0 0 -3065z m2848 3025 c68 -35 115 -82 146 -149 l21 -46 0 -1270 0 -1270 -21 -46 c-31 -67 -78 -114 -146 -149 l-61 -30 -1267 0 -1267 0 -61 30 c-68 35 -115 82 -146 149 l-21 46 0 1270 0 1270 21 46 c31 67 78 114 146 149 l61 30 1267 0 1267 0 61 -30z m3100 0 c68 -35 115 -82 146 -149 l21 -46 0 -1270 0 -1270 -21 -46 c-31 -67 -78 -114 -146 -149 l-61 -30 -1267 0 -1267 0 -61 30 c-68 35 -115 82 -146 149 l-21 46 0 1270 0 1270 21 46 c31 67 78 114 146 149 l61 30 1267 0 1267 0 61 -30z m-3100 -3100 c68 -35 115 -82 146 -149 l21 -46 0 -1270 0 -1270 -21 -46 c-31 -67 -78 -114 -146 -149 l-61 -30 -1267 0 -1267 0 -61 30 c-68 35 -115 82 -146 149 l-21 46 0 1270 0 1270 21 46 c31 67 78 114 146 149 l61 30 1267 0 1267 0 61 -30z m3100 0 c68 -35 115 -82 146 -149 l21 -46 0 -1270 0 -1270 -21 -46 c-31 -67 -78 -114 -146 -149 l-61 -30 -1267 0 -1267 0 -61 30 c-68 35 -115 82 -146 149 l-21 46 0 1270 0 1270 21 46 c31 67 78 114 146 149 l61 30 1267 0 1267 0 61 -30z"/>
 <path d="M1804 5290 c-88 -27 -181 -123 -205 -213 -16 -60 -7 -154 19 -208 73 -151 258 -218 404 -146 109 54 172 152 172 272 0 120 -64 224 -173 277 -51 25 -163 34 -217 18z"/>
 <path d="M344 4560 c-88 -27 -181 -123 -205 -213 -16 -60 -7 -154 19 -208 73 -151 258 -218 404 -146 109 54 172 152 172 272 0 120 -64 224 -173 277 -51 25 -163 34 -217 18z"/>
 <path d="M1074 3830 c-88 -27 -181 -123 -205 -213 -16 -60 -7 -154 19 -208 73 -151 258 -218 404 -146 109 54 172 152 172 272 0 120 -64 224 -173 277 -51 25 -163 34 -217 18z"/>
 <path d="M4174 5290 c-88 -27 -181 -123 -205 -213 -16 -60 -7 -154 19 -208 73 -151 258 -218 404 -146 109 54 172 152 172 272 0 120 -64 224 -173 277 -51 25 -163 34 -217 18z"/>
 <path d="M5634 5290 c-88 -27 -181 -123 -205 -213 -16 -60 -7 -154 19 -208 73 -151 258 -218 404 -146 109 54 172 152 172 272 0 120 -64 224 -173 277 -51 25 -163 34 -217 18z"/>
 <path d="M4174 4560 c-88 -27 -181 -123 -205 -213 -16 -60 -7 -154 19 -208 73 -151 258 -218 404 -146 109 54 172 152 172 272 0 120 -64 224 -173 277 -51 25 -163 34 -217 18z"/>
 <path d="M1097 2910 c-92 -23 -168 -85 -209 -169 -19 -37 -23 -63 -23 -131 0 -75 3 -91 29 -138 33 -60 76 -101 139 -134 61 -33 193 -33 258 0 186 91 232 328 94 480 -68 76 -193 115 -288 92z"/>
 <path d="M1097 2180 c-92 -23 -168 -85 -209 -169 -19 -37 -23 -63 -23 -131 0 -75 3 -91 29 -138 33 -60 76 -101 139 -134 61 -33 193 -33 258 0 186 91 232 328 94 480 -68 76 -193 115 -288 92z"/>
 <path d="M1827 2180 c-92 -23 -168 -85 -209 -169 -19 -37 -23 -63 -23 -131 0 -75 3 -91 29 -138 33 -60 76 -101 139 -134 61 -33 193 -33 258 0 186 91 232 328 94 480 -68 76 -193 115 -288 92z"/>
 <path d="M367 720 c-92 -23 -168 -85 -209 -169 -19 -37 -23 -63 -23 -131 0 -75 3 -91 29 -138 33 -60 76 -101 139 -134 61 -33 193 -33 258 0 186 91 232 328 94 480 -68 76 -193 115 -288 92z"/>
 <path d="M2557 720 c-92 -23 -168 -85 -209 -169 -19 -37 -23 -63 -23 -131 0 -75 3 -91 29 -138 33 -60 76 -101 139 -134 61 -33 193 -33 258 0 186 91 232 328 94 480 -68 76 -193 115 -288 92z"/>
 <path d="M4174 2920 c-88 -27 -181 -123 -205 -213 -16 -60 -7 -154 19 -208 73 -151 258 -218 404 -146 109 54 172 152 172 272 0 120 -64 224 -173 277 -51 25 -163 34 -217 18z"/>
 <path d="M4904 1460 c-88 -27 -181 -123 -205 -213 -16 -60 -7 -154 19 -208 73 -151 258 -218 404 -146 109 54 172 152 172 272 0 120 -64 224 -173 277 -51 25 -163 34 -217 18z"/>
 <path d="M4904 730 c-88 -27 -181 -123 -205 -213 -16 -60 -7 -154 19 -208 73 -151 258 -218 404 -146 109 54 172 152 172 272 0 120 -64 224 -173 277 -51 25 -163 34 -217 18z"/>
 </g>

</svg>